<?xml version="1.0" standalone="no"?><!DOCTYPE svg PUBLIC "-//W3C//DTD SVG 1.1//EN" "http://www.w3.org/Graphics/SVG/1.1/DTD/svg11.dtd"><svg t="1677550078008" class="icon" viewBox="0 0 1216 1024" version="1.1" xmlns="http://www.w3.org/2000/svg" p-id="1257" xmlns:xlink="http://www.w3.org/1999/xlink" width="237.5" height="200"><path d="M64 0h1088a64 64 0 0 1 64 64v128a64 64 0 0 1-64 64H64a64 64 0 0 1-64-64V64a64 64 0 0 1 64-64z" fill="#377DFF" p-id="1258"></path><path d="M64 384h1088a64 64 0 0 1 64 64v512a64 64 0 0 1-64 64H64a64 64 0 0 1-64-64V448a64 64 0 0 1 64-64z" fill="#377DFF" opacity=".3" p-id="1259"></path></svg>